<?xml version="1.0" encoding="UTF-8" standalone="no"?>
<!-- Created with Inkscape (http://www.inkscape.org/) -->
<svg
   xmlns:svg="http://www.w3.org/2000/svg"
   xmlns="http://www.w3.org/2000/svg"
   version="1.0"
   width="16"
   height="16"
   id="svg1872">
  <defs
     id="defs1874" />
  <g
     id="layer1">
    <path
       d="M 1,1 L 1,2 L 1,4 L 2,4 L 2,2 L 4,2 L 4,1 L 2,1 L 1,1 z M 5,1 L 5,2 L 8,2 L 8,1 L 5,1 z M 9,1 L 9,2 L 12,2 L 12,1 L 9,1 z M 13,1 L 13,2 L 15,2 L 15,4 L 16,4 L 16,2 L 16,1 L 15,1 L 13,1 z M 1,5 L 1,8 L 2,8 L 2,5 L 1,5 z M 15,5 L 15,8 L 16,8 L 16,5 L 15,5 z M 1,9 L 1,12 L 2,12 L 2,9 L 1,9 z M 15,9 L 15,12 L 16,12 L 16,9 L 15,9 z M 1,13 L 1,16 L 2,16 L 4,16 L 4,15 L 2,15 L 2,13 L 1,13 z M 15,13 L 15,15 L 13,15 L 13,16 L 16,16 L 16,15 L 16,13 L 15,13 z M 5,15 L 5,16 L 8,16 L 8,15 L 5,15 z M 9,15 L 9,16 L 12,16 L 12,15 L 9,15 z "
       style="fill:#b2b2b2;fill-opacity:1;stroke:none;stroke-width:1;stroke-miterlimit:4;stroke-dasharray:none;stroke-opacity:1"
       id="rect4170" />
  </g>
</svg>
